<?xml version="1.0" encoding="utf-8"?>
<!-- Generator: Adobe Illustrator 25.2.3, SVG Export Plug-In . SVG Version: 6.00 Build 0)  -->
<svg version="1.2" baseProfile="tiny" id="Слой_1" focusable="false"
	 xmlns="http://www.w3.org/2000/svg" xmlns:xlink="http://www.w3.org/1999/xlink" x="0px" y="0px" viewBox="0 0 512 512"
	 overflow="visible" xml:space="preserve">
<path fill="none" d="M213.5,262c22.3-22.7,44.5-45.9,66.8-69c-19.6,19.6-39.3,39.3-58.9,58.9c-3.2,3.2-6,6.7-8.4,10.5
	c-1,1.5-0.9,4.5,0,6c2.4,3.8,5.3,7.3,8.4,10.4c11.7,11.6,23.4,23.2,35,34.9c-14.6-15-29-30.1-43.3-45.2
	C212.2,266.8,212.3,263.3,213.5,262z"/>
<path fill="none" d="M417.1,88.3c0.5,3.3-4.2,10.3-12.4,20c1.4-1.4,2.8-2.8,4.2-4.2c3-3.1,6.1-6.3,8.1-10c1.3-2.4,2-6.1-1.9-7.9
	C415.8,87,416.4,87.7,417.1,88.3z"/>
<path fill="none" d="M391.4,447.4c-15.1-14.4-30.2-28.9-45.2-43.6C361.2,418.5,376.2,433.1,391.4,447.4z"/>
<path fill="none" d="M409.4,451c-2,2.9-7,3.9-10.1,3.6c1.7,0.7,4.7,0.2,6.7-0.4c2-0.6,3.8-2.6,5.3-4.3c2-2.3,4.9-5.1,6-8.1
	C415.9,445.2,411.5,448,409.4,451z"/>
<path fill="none" d="M247.7,267.6c0.6-1.7,6.4-8.6,6.4-8.6s20.9-20.9,48.7-48.6c-19.4,18.6-38.5,37-54.5,53
	C246.2,264.9,245.9,266,247.7,267.6z"/>
<path fill="none" d="M417.5,437.8c0.1,0.2,0.1,0.4,0.2,0.6C417.6,438.2,417.5,438,417.5,437.8z"/>
<path fill="none" d="M254.9,272.8c-1.6-1.6-3.6-2.6-5.5-3.8c12.6,11.8,25.1,23.8,37.5,35.8C276.2,294.1,265.6,283.5,254.9,272.8z"/>
<path fill="none" d="M417.5,437.8c-0.1-0.5-0.3-0.9-0.6-1.4c-2.5-3.7-5.5-7.1-8.6-10.2c-9-9.1-18.1-18.1-27.1-27.1
	c12.1,12.5,24,25,35.8,37.6C417.2,437.1,417.4,437.4,417.5,437.8z"/>
<g>
	<g>
		<path fill="#5A98D0" d="M409.5,444.1c5.3-5.3,5.3-13.9,0-19.2L240.4,256.2L409.5,87.1c5.3-5.3,5.3-13.9,0-19.2s-13.9-5.3-19.2,0
			L212,246.3c-2.6,2.6-4,6-4,9.6c0,3.3,1.3,6.9,4,9.6l178.4,178.4C395.6,449.4,404.2,449.4,409.5,444.1z"/>
	</g>
	<g>
		<path fill="#5A98D0" d="M300,444.1c5.3-5.3,5.3-13.9,0-19.2L130.9,256.2L300,87.1c5.3-5.3,5.3-13.9,0-19.2
			c-5.3-5.3-13.9-5.3-19.2,0L102.5,246.3c-2.6,2.6-4,6-4,9.6c0,3.3,1.3,6.9,4,9.6l178.4,178.4C286.1,449.4,294.7,449.4,300,444.1z"
			/>
	</g>
</g>
</svg>
