<?xml version="1.0" encoding="utf-8"?>
<!-- Generator: Adobe Illustrator 25.2.3, SVG Export Plug-In . SVG Version: 6.00 Build 0)  -->
<svg version="1.2" baseProfile="tiny" id="Слой_1"
	 xmlns="http://www.w3.org/2000/svg" xmlns:xlink="http://www.w3.org/1999/xlink" x="0px" y="0px" viewBox="0 0 512 98"
	 overflow="visible" xml:space="preserve">
<g id="Layer" transform="matrix(0.336,0,0,0.335,0,0.78)">
</g>
<path fill="#5997D0" d="M139.8,80.3c-5.3-0.6-10.4-2.6-14.2-5.6c-3.5-2.7-8.4-2.8-11.9,0c-9.3,7.5-26.4,7.5-35.8-0.4
	c-3.3-2.8-8.1-2.2-11.5,0.4c-9.3,7.4-26.3,7.4-35.7-0.4c-3.3-2.8-8.2-2.2-11.6,0.5c-3.8,3-8.9,4.9-14.2,5.5
	c-1.9,0.2-3.3,1.9-3.3,3.9v7.9c0,2.2,1.9,4.1,4.1,3.9c7.1-0.6,13.8-2.8,19.5-6.4c13.9,8.5,33.7,8.4,47.2,0c13.9,8.5,33.7,8.4,47.2,0
	c5.7,3.5,12.5,5.7,19.5,6.3c2.2,0.2,4.1-1.7,4.1-3.9v-7.8C143.2,82.4,141.8,80.6,139.8,80.3z M139.8,44.9
	c-5.3-0.6-10.4-2.6-14.2-5.6c-3.5-2.7-8.4-2.8-11.9,0c-9.3,7.5-26.4,7.5-35.8-0.4c-3.3-2.8-8.1-2.2-11.5,0.4
	c-9.3,7.4-26.3,7.4-35.7-0.4c-3.3-2.8-8.2-2.2-11.6,0.5c-3.8,3-8.9,4.9-14.2,5.5c-1.9,0.2-3.3,1.9-3.3,3.9v7.9
	c0,2.2,1.9,4.1,4.1,3.9c7.1-0.6,13.8-2.8,19.5-6.4c13.9,8.5,33.7,8.4,47.2,0c13.9,8.5,33.7,8.4,47.2,0c5.7,3.5,12.5,5.7,19.5,6.3
	c2.2,0.2,4.1-1.7,4.1-3.9v-7.8C143.2,47,141.8,45.1,139.8,44.9L139.8,44.9z M139.8,9.5c-5.3-0.6-10.4-2.6-14.2-5.6
	c-3.5-2.7-8.4-2.8-11.9,0c-9.3,7.5-26.4,7.5-35.8-0.4c-3.3-2.8-8.1-2.2-11.5,0.4c-9.3,7.4-26.3,7.4-35.7-0.4
	C27.3,0.8,22.5,1.3,19.1,4C15.3,7,10.2,9,4.9,9.5c-1.9,0.2-3.3,1.9-3.3,3.9v7.9c0,2.2,1.9,4.1,4.1,3.9c7.1-0.6,13.8-2.8,19.5-6.4
	c13.9,8.5,33.7,8.4,47.2,0c13.9,8.5,33.7,8.4,47.2,0c5.7,3.5,12.5,5.7,19.5,6.3c2.2,0.2,4.1-1.7,4.1-3.9v-7.8
	C143.2,11.5,141.8,9.7,139.8,9.5L139.8,9.5z"/>
<g>
	<path fill="#5997D0" d="M185.7,36.9c-2.8,0-5.4-0.4-7.7-1.1c-2.3-0.7-4.3-1.8-5.9-3.2l1.5-3.4c1.7,1.3,3.6,2.3,5.5,3
		c1.9,0.6,4.1,1,6.6,1c3.1,0,5.3-0.6,6.8-1.7c1.5-1.1,2.2-2.6,2.2-4.5c0-1.5-0.5-2.7-1.6-3.6c-1.1-0.9-2.9-1.6-5.4-2.1l-5.3-1.1
		c-3.2-0.7-5.6-1.8-7.2-3.3c-1.6-1.6-2.4-3.6-2.4-6.2c0-2.1,0.6-4,1.7-5.6c1.1-1.6,2.6-2.8,4.6-3.7c2-0.9,4.3-1.3,6.8-1.3
		c2.4,0,4.7,0.4,6.7,1.2c2.1,0.8,3.8,1.9,5.3,3.3l-1.5,3.3c-1.5-1.4-3.2-2.4-4.9-3c-1.7-0.6-3.6-0.9-5.7-0.9c-2.7,0-4.8,0.6-6.4,1.9
		c-1.6,1.2-2.4,2.9-2.4,4.9c0,1.6,0.5,2.9,1.5,3.9c1,1,2.6,1.7,4.9,2.1l5.3,1.1c3.4,0.7,6,1.8,7.6,3.2c1.7,1.4,2.5,3.4,2.5,5.9
		c0,2-0.5,3.8-1.6,5.3c-1.1,1.5-2.6,2.7-4.6,3.6S188.4,36.9,185.7,36.9z"/>
	<path fill="#5997D0" d="M214.6,36.5l-12.6-36h4.4l10.2,29.9l10.4-29.9h3.4l10.3,30.2L251,0.4h4.2l-12.6,36h-3.7L228.6,6.8
		l-10.4,29.6H214.6z"/>
	<path fill="#5997D0" d="M260.5,36.5v-36h4.2v36H260.5z"/>
	<path fill="#5997D0" d="M273.1,36.5v-36h3.5l13.9,26l13.8-26h3.5v36h-3.9V8.3l-12,22.6h-2.8L276.9,8.3v28.1H273.1z"/>
	<path fill="#5997D0" d="M183.7,97.8l-12.6-36h4.4l10.2,29.9l10.4-29.9h3.4l10.3,30.2l10.4-30.2h4.2l-12.6,36H208l-10.3-29.6
		l-10.4,29.6H183.7z"/>
	<path fill="#5997D0" d="M231,97.8v-36h4.2v36H231z"/>
	<path fill="#5997D0" d="M253.7,97.8V65.4h-13.1v-3.6H271v3.6h-13.1v32.4H253.7z"/>
	<path fill="#5997D0" d="M276.3,97.8v-36h4.2v15.9h21.6V61.8h4.2v36h-4.2V81.3h-21.6v16.5H276.3z"/>
</g>
<g>
	<path fill="#5997D0" d="M336.1,97.6V0.1h9.4l37,70.4l36.7-70.4h9.4v97.5h-10.4V21.4l-32,61.1h-7.4l-32.5-61v76H336.1z"/>
	<path fill="#5997D0" d="M450.8,97.6V0.1h60.7v9.5h-49.8v33.7h46.9V53h-46.9v35.1h49.8v9.5H450.8z"/>
</g>
</svg>
