<?xml version="1.0" encoding="utf-8"?>
<!-- Generator: Adobe Illustrator 25.2.3, SVG Export Plug-In . SVG Version: 6.00 Build 0)  -->
<svg version="1.1" id="Слой_1" xmlns="http://www.w3.org/2000/svg" xmlns:xlink="http://www.w3.org/1999/xlink" x="0px" y="0px"
	 viewBox="0 0 24 24" style="enable-background:new 0 0 24 24;" xml:space="preserve">
<style type="text/css">
	.st0{fill:#D12057;}
</style>
<g>
	<path class="st0" d="M22.4,7.1c-0.1,0.4-0.3,0.8-0.4,1.2c-0.6,2-1.2,4.1-1.8,6.1c-0.3,1.1-1.2,1.8-2.4,1.8c-3.3,0-6.6,0-9.8,0
		c-1.2,0-2.3-0.7-2.5-2.3c-0.3-1.7-0.6-3.5-0.9-5.2C4.3,7.4,4,6.1,3.8,4.8C3.6,3.8,3.1,3.3,2,3.1C1.7,3,1.3,3,1,2.9
		C0.7,2.9,0.5,2.6,0.6,2.3C0.6,2.1,0.9,1.9,1.2,2C1.6,2,2.1,2.1,2.6,2.2c1.2,0.3,2,1.2,2.2,2.5C4.9,5.3,5,5.8,5.1,6.4
		c0.1,0,0.2,0,0.3,0c5.5,0,10.9,0,16.4,0c0.3,0,0.5,0.1,0.6,0.3C22.4,6.9,22.4,7,22.4,7.1z M21.2,7.4c-5.3,0-10.7,0-16,0
		c0,0.1,0,0.2,0,0.2c0.4,2,0.7,4,1.1,6c0,0.2,0.1,0.4,0.1,0.5c0.2,0.7,0.7,1.1,1.5,1.1c1.4,0,2.9,0,4.3,0c1.8,0,3.7,0,5.5,0
		c0.8,0,1.3-0.4,1.5-1.1c0.7-2.2,1.3-4.3,2-6.5C21.2,7.6,21.2,7.5,21.2,7.4z"/>
	<path class="st0" d="M17.8,22.5c-1.4,0-2.6-1.2-2.6-2.6c0-1.4,1.2-2.6,2.6-2.6c1.4,0,2.6,1.2,2.6,2.6
		C20.4,21.4,19.2,22.5,17.8,22.5z M19.4,19.9c0-0.9-0.7-1.6-1.6-1.6c-0.9,0-1.7,0.7-1.7,1.6c0,0.9,0.7,1.6,1.6,1.6
		C18.7,21.6,19.4,20.8,19.4,19.9z"/>
	<path class="st0" d="M7.8,22.5c-1.4,0-2.6-1.2-2.6-2.6c0-1.4,1.2-2.6,2.6-2.6c1.4,0,2.6,1.2,2.6,2.6C10.4,21.3,9.2,22.5,7.8,22.5z
		 M9.4,19.9c0-0.9-0.7-1.6-1.6-1.6c-0.9,0-1.6,0.7-1.6,1.6c0,0.9,0.7,1.6,1.6,1.6C8.7,21.6,9.4,20.8,9.4,19.9z"/>
</g>
</svg>
