<?xml version="1.0" encoding="utf-8"?>
<!-- Generator: Adobe Illustrator 25.2.3, SVG Export Plug-In . SVG Version: 6.00 Build 0)  -->
<svg version="1.1" id="Слой_1" xmlns="http://www.w3.org/2000/svg" xmlns:xlink="http://www.w3.org/1999/xlink" x="0px" y="0px"
	 viewBox="0 0 24 24" style="enable-background:new 0 0 24 24;" xml:space="preserve">
<style type="text/css">
	.st0{fill-rule:evenodd;clip-rule:evenodd;fill:#D12057;}
</style>
<path class="st0" d="M8.9,2C8.7,2,8.5,2.1,8.4,2.2C8.2,2.4,8.2,2.6,8.2,2.8c0,0.2,0.1,0.4,0.2,0.5c0.1,0.1,0.3,0.2,0.5,0.2h11.5
	v16.9H8.9c-0.2,0-0.4,0.1-0.5,0.2c-0.1,0.1-0.2,0.3-0.2,0.5c0,0.2,0.1,0.4,0.2,0.5C8.5,21.9,8.7,22,8.9,22h11.5
	c0.4,0,0.8-0.2,1.1-0.5s0.5-0.7,0.5-1.1V3.5c0-0.4-0.2-0.8-0.5-1.1C21.3,2.2,20.9,2,20.5,2H8.9z M12.2,8c-0.1-0.1-0.2-0.1-0.2-0.2
	c-0.1,0-0.2-0.1-0.3-0.1c-0.1,0-0.2,0-0.3,0.1c-0.1,0-0.2,0.1-0.2,0.2c-0.1,0.1-0.1,0.2-0.2,0.2c0,0.1-0.1,0.2-0.1,0.3
	c0,0.1,0,0.2,0.1,0.3c0,0.1,0.1,0.2,0.2,0.2l2.1,2.1H2.8c-0.2,0-0.4,0.1-0.5,0.2C2.1,11.6,2,11.8,2,12s0.1,0.4,0.2,0.5
	c0.1,0.1,0.3,0.2,0.5,0.2h10.5l-2.1,2.1c-0.1,0.1-0.2,0.3-0.2,0.5c0,0.2,0.1,0.4,0.2,0.5c0.1,0.1,0.3,0.2,0.5,0.2s0.4-0.1,0.5-0.2
	l3.5-3.5c0.1-0.1,0.1-0.2,0.2-0.2c0-0.1,0.1-0.2,0.1-0.3s0-0.2-0.1-0.3c0-0.1-0.1-0.2-0.2-0.2L12.2,8z"/>
</svg>
